<mxfile host="app.diagrams.net" modified="2024-04-19T14:50:52.391Z" agent="Mozilla/5.0 (Windows NT 10.0; Win64; x64) AppleWebKit/537.36 (KHTML, like Gecko) Chrome/124.0.0.0 Safari/537.36" etag="bQNbsue9Oj1P0X-IlCR8" version="24.2.5" type="github" pages="2">
  <diagram id="C5RBs43oDa-KdzZeNtuy" name="Page-1">
    <mxGraphModel dx="1687" dy="878" grid="1" gridSize="10" guides="1" tooltips="1" connect="1" arrows="1" fold="1" page="1" pageScale="1" pageWidth="827" pageHeight="1169" math="0" shadow="0">
      <root>
        <mxCell id="WIyWlLk6GJQsqaUBKTNV-0" />
        <mxCell id="WIyWlLk6GJQsqaUBKTNV-1" parent="WIyWlLk6GJQsqaUBKTNV-0" />
        <mxCell id="WIyWlLk6GJQsqaUBKTNV-2" value="" style="rounded=0;html=1;jettySize=auto;orthogonalLoop=1;fontSize=11;endArrow=block;endFill=0;endSize=8;strokeWidth=1;shadow=0;labelBackgroundColor=none;edgeStyle=orthogonalEdgeStyle;entryX=0.5;entryY=0;entryDx=0;entryDy=0;" parent="WIyWlLk6GJQsqaUBKTNV-1" source="WIyWlLk6GJQsqaUBKTNV-3" target="55v0jhNbEc0lfUp3kyLJ-1" edge="1">
          <mxGeometry relative="1" as="geometry">
            <mxPoint x="300" y="100" as="targetPoint" />
          </mxGeometry>
        </mxCell>
        <mxCell id="WIyWlLk6GJQsqaUBKTNV-3" value="시작" style="rounded=1;whiteSpace=wrap;html=1;fontSize=12;glass=0;strokeWidth=1;shadow=0;" parent="WIyWlLk6GJQsqaUBKTNV-1" vertex="1">
          <mxGeometry x="240" y="10" width="120" height="40" as="geometry" />
        </mxCell>
        <mxCell id="55v0jhNbEc0lfUp3kyLJ-1" value="res 리스트, num 선언" style="rounded=0;whiteSpace=wrap;html=1;" vertex="1" parent="WIyWlLk6GJQsqaUBKTNV-1">
          <mxGeometry x="240" y="110" width="120" height="60" as="geometry" />
        </mxCell>
        <mxCell id="55v0jhNbEc0lfUp3kyLJ-3" value="" style="rounded=0;html=1;jettySize=auto;orthogonalLoop=1;fontSize=11;endArrow=block;endFill=0;endSize=8;strokeWidth=1;shadow=0;labelBackgroundColor=none;edgeStyle=orthogonalEdgeStyle;" edge="1" parent="WIyWlLk6GJQsqaUBKTNV-1">
          <mxGeometry relative="1" as="geometry">
            <mxPoint x="299.5" y="170" as="sourcePoint" />
            <mxPoint x="299.5" y="220" as="targetPoint" />
          </mxGeometry>
        </mxCell>
        <mxCell id="55v0jhNbEc0lfUp3kyLJ-4" value="num 입력" style="shape=parallelogram;perimeter=parallelogramPerimeter;whiteSpace=wrap;html=1;fixedSize=1;" vertex="1" parent="WIyWlLk6GJQsqaUBKTNV-1">
          <mxGeometry x="240" y="220" width="120" height="60" as="geometry" />
        </mxCell>
        <mxCell id="55v0jhNbEc0lfUp3kyLJ-5" value="num이 음수인가?" style="rhombus;whiteSpace=wrap;html=1;" vertex="1" parent="WIyWlLk6GJQsqaUBKTNV-1">
          <mxGeometry x="245" y="330" width="110" height="110" as="geometry" />
        </mxCell>
        <mxCell id="55v0jhNbEc0lfUp3kyLJ-6" value="" style="rounded=0;html=1;jettySize=auto;orthogonalLoop=1;fontSize=11;endArrow=block;endFill=0;endSize=8;strokeWidth=1;shadow=0;labelBackgroundColor=none;edgeStyle=orthogonalEdgeStyle;" edge="1" parent="WIyWlLk6GJQsqaUBKTNV-1">
          <mxGeometry relative="1" as="geometry">
            <mxPoint x="299.5" y="280" as="sourcePoint" />
            <mxPoint x="299.5" y="330" as="targetPoint" />
          </mxGeometry>
        </mxCell>
        <mxCell id="55v0jhNbEc0lfUp3kyLJ-7" value="" style="rounded=0;html=1;jettySize=auto;orthogonalLoop=1;fontSize=11;endArrow=block;endFill=0;endSize=8;strokeWidth=1;shadow=0;labelBackgroundColor=none;edgeStyle=orthogonalEdgeStyle;" edge="1" parent="WIyWlLk6GJQsqaUBKTNV-1" target="55v0jhNbEc0lfUp3kyLJ-9">
          <mxGeometry relative="1" as="geometry">
            <mxPoint x="245" y="390" as="sourcePoint" />
            <mxPoint x="170" y="410" as="targetPoint" />
            <Array as="points">
              <mxPoint x="245" y="391" />
              <mxPoint x="170" y="391" />
            </Array>
          </mxGeometry>
        </mxCell>
        <mxCell id="55v0jhNbEc0lfUp3kyLJ-8" value="종료" style="rounded=1;whiteSpace=wrap;html=1;" vertex="1" parent="WIyWlLk6GJQsqaUBKTNV-1">
          <mxGeometry x="280" y="1100" width="120" height="60" as="geometry" />
        </mxCell>
        <mxCell id="55v0jhNbEc0lfUp3kyLJ-9" value="&quot;첫 입력으로 음수를 입력했습니다.&quot;" style="shape=document;whiteSpace=wrap;html=1;boundedLbl=1;" vertex="1" parent="WIyWlLk6GJQsqaUBKTNV-1">
          <mxGeometry x="110" y="430" width="120" height="80" as="geometry" />
        </mxCell>
        <mxCell id="55v0jhNbEc0lfUp3kyLJ-10" value="" style="rounded=0;html=1;jettySize=auto;orthogonalLoop=1;fontSize=11;endArrow=block;endFill=0;endSize=8;strokeWidth=1;shadow=0;labelBackgroundColor=none;edgeStyle=orthogonalEdgeStyle;exitX=0.417;exitY=0.975;exitDx=0;exitDy=0;exitPerimeter=0;entryX=0.025;entryY=0.65;entryDx=0;entryDy=0;entryPerimeter=0;" edge="1" parent="WIyWlLk6GJQsqaUBKTNV-1" source="55v0jhNbEc0lfUp3kyLJ-9" target="55v0jhNbEc0lfUp3kyLJ-8">
          <mxGeometry relative="1" as="geometry">
            <mxPoint x="175" y="540" as="sourcePoint" />
            <mxPoint x="100" y="580" as="targetPoint" />
            <Array as="points">
              <mxPoint x="160" y="1139" />
            </Array>
          </mxGeometry>
        </mxCell>
        <mxCell id="55v0jhNbEc0lfUp3kyLJ-11" value="Yes" style="text;html=1;align=center;verticalAlign=middle;whiteSpace=wrap;rounded=0;" vertex="1" parent="WIyWlLk6GJQsqaUBKTNV-1">
          <mxGeometry x="180" y="360" width="60" height="30" as="geometry" />
        </mxCell>
        <mxCell id="55v0jhNbEc0lfUp3kyLJ-12" value="No" style="text;html=1;align=center;verticalAlign=middle;whiteSpace=wrap;rounded=0;" vertex="1" parent="WIyWlLk6GJQsqaUBKTNV-1">
          <mxGeometry x="380" y="360" width="60" height="30" as="geometry" />
        </mxCell>
        <mxCell id="55v0jhNbEc0lfUp3kyLJ-13" value="" style="rounded=0;html=1;jettySize=auto;orthogonalLoop=1;fontSize=11;endArrow=block;endFill=0;endSize=8;strokeWidth=1;shadow=0;labelBackgroundColor=none;edgeStyle=orthogonalEdgeStyle;exitX=1;exitY=0.5;exitDx=0;exitDy=0;entryX=0;entryY=0.5;entryDx=0;entryDy=0;" edge="1" parent="WIyWlLk6GJQsqaUBKTNV-1" source="55v0jhNbEc0lfUp3kyLJ-5" target="55v0jhNbEc0lfUp3kyLJ-14">
          <mxGeometry relative="1" as="geometry">
            <mxPoint x="460" y="350" as="sourcePoint" />
            <mxPoint x="470" y="440" as="targetPoint" />
            <Array as="points">
              <mxPoint x="530" y="385" />
              <mxPoint x="530" y="405" />
            </Array>
          </mxGeometry>
        </mxCell>
        <mxCell id="55v0jhNbEc0lfUp3kyLJ-14" value="num &amp;gt; 0" style="rhombus;whiteSpace=wrap;html=1;" vertex="1" parent="WIyWlLk6GJQsqaUBKTNV-1">
          <mxGeometry x="540" y="350" width="120" height="110" as="geometry" />
        </mxCell>
        <mxCell id="55v0jhNbEc0lfUp3kyLJ-15" value="res 리스트에 num 추가" style="rounded=0;whiteSpace=wrap;html=1;" vertex="1" parent="WIyWlLk6GJQsqaUBKTNV-1">
          <mxGeometry x="535" y="500" width="130" height="60" as="geometry" />
        </mxCell>
        <mxCell id="55v0jhNbEc0lfUp3kyLJ-16" value="" style="rounded=0;html=1;jettySize=auto;orthogonalLoop=1;fontSize=11;endArrow=block;endFill=0;endSize=8;strokeWidth=1;shadow=0;labelBackgroundColor=none;edgeStyle=orthogonalEdgeStyle;" edge="1" parent="WIyWlLk6GJQsqaUBKTNV-1" source="55v0jhNbEc0lfUp3kyLJ-14" target="55v0jhNbEc0lfUp3kyLJ-15">
          <mxGeometry relative="1" as="geometry">
            <mxPoint x="365" y="395" as="sourcePoint" />
            <mxPoint x="600" y="490" as="targetPoint" />
            <Array as="points" />
          </mxGeometry>
        </mxCell>
        <mxCell id="55v0jhNbEc0lfUp3kyLJ-17" value="Yes" style="text;html=1;align=center;verticalAlign=middle;whiteSpace=wrap;rounded=0;" vertex="1" parent="WIyWlLk6GJQsqaUBKTNV-1">
          <mxGeometry x="535" y="470" width="60" height="30" as="geometry" />
        </mxCell>
        <mxCell id="55v0jhNbEc0lfUp3kyLJ-19" value="" style="rounded=0;html=1;jettySize=auto;orthogonalLoop=1;fontSize=11;endArrow=block;endFill=0;endSize=8;strokeWidth=1;shadow=0;labelBackgroundColor=none;edgeStyle=orthogonalEdgeStyle;entryX=0.5;entryY=0;entryDx=0;entryDy=0;exitX=0.5;exitY=1;exitDx=0;exitDy=0;" edge="1" parent="WIyWlLk6GJQsqaUBKTNV-1" source="55v0jhNbEc0lfUp3kyLJ-15" target="55v0jhNbEc0lfUp3kyLJ-20">
          <mxGeometry relative="1" as="geometry">
            <mxPoint x="595" y="580" as="sourcePoint" />
            <mxPoint x="595" y="635" as="targetPoint" />
            <Array as="points" />
          </mxGeometry>
        </mxCell>
        <mxCell id="55v0jhNbEc0lfUp3kyLJ-20" value="my_input()" style="shape=process;whiteSpace=wrap;html=1;backgroundOutline=1;" vertex="1" parent="WIyWlLk6GJQsqaUBKTNV-1">
          <mxGeometry x="540" y="590" width="120" height="60" as="geometry" />
        </mxCell>
        <mxCell id="wdg86uwv9AEd6ZHeT4TU-11" value="" style="edgeStyle=orthogonalEdgeStyle;rounded=0;orthogonalLoop=1;jettySize=auto;html=1;" edge="1" parent="WIyWlLk6GJQsqaUBKTNV-1" source="55v0jhNbEc0lfUp3kyLJ-21" target="wdg86uwv9AEd6ZHeT4TU-0">
          <mxGeometry relative="1" as="geometry">
            <Array as="points">
              <mxPoint x="700" y="730" />
              <mxPoint x="700" y="730" />
            </Array>
          </mxGeometry>
        </mxCell>
        <mxCell id="55v0jhNbEc0lfUp3kyLJ-21" value="&quot;최대값은 :&quot;" style="shape=document;whiteSpace=wrap;html=1;boundedLbl=1;" vertex="1" parent="WIyWlLk6GJQsqaUBKTNV-1">
          <mxGeometry x="540" y="690" width="120" height="80" as="geometry" />
        </mxCell>
        <mxCell id="wdg86uwv9AEd6ZHeT4TU-9" value="" style="edgeStyle=orthogonalEdgeStyle;rounded=0;orthogonalLoop=1;jettySize=auto;html=1;" edge="1" parent="WIyWlLk6GJQsqaUBKTNV-1" source="55v0jhNbEc0lfUp3kyLJ-22" target="wdg86uwv9AEd6ZHeT4TU-2">
          <mxGeometry relative="1" as="geometry">
            <Array as="points">
              <mxPoint x="700" y="950" />
              <mxPoint x="700" y="950" />
            </Array>
          </mxGeometry>
        </mxCell>
        <mxCell id="55v0jhNbEc0lfUp3kyLJ-22" value="&quot;합은 :&quot;" style="shape=document;whiteSpace=wrap;html=1;boundedLbl=1;" vertex="1" parent="WIyWlLk6GJQsqaUBKTNV-1">
          <mxGeometry x="540" y="910" width="120" height="80" as="geometry" />
        </mxCell>
        <mxCell id="wdg86uwv9AEd6ZHeT4TU-8" value="" style="edgeStyle=orthogonalEdgeStyle;rounded=0;orthogonalLoop=1;jettySize=auto;html=1;" edge="1" parent="WIyWlLk6GJQsqaUBKTNV-1" source="55v0jhNbEc0lfUp3kyLJ-23" target="wdg86uwv9AEd6ZHeT4TU-1">
          <mxGeometry relative="1" as="geometry">
            <Array as="points">
              <mxPoint x="700" y="840" />
              <mxPoint x="700" y="840" />
            </Array>
          </mxGeometry>
        </mxCell>
        <mxCell id="55v0jhNbEc0lfUp3kyLJ-23" value="&quot;최소값은 :&quot;" style="shape=document;whiteSpace=wrap;html=1;boundedLbl=1;" vertex="1" parent="WIyWlLk6GJQsqaUBKTNV-1">
          <mxGeometry x="540" y="800" width="120" height="80" as="geometry" />
        </mxCell>
        <mxCell id="wdg86uwv9AEd6ZHeT4TU-10" value="" style="edgeStyle=orthogonalEdgeStyle;rounded=0;orthogonalLoop=1;jettySize=auto;html=1;" edge="1" parent="WIyWlLk6GJQsqaUBKTNV-1" source="55v0jhNbEc0lfUp3kyLJ-24" target="wdg86uwv9AEd6ZHeT4TU-3">
          <mxGeometry relative="1" as="geometry">
            <Array as="points">
              <mxPoint x="700" y="1060" />
              <mxPoint x="700" y="1060" />
            </Array>
          </mxGeometry>
        </mxCell>
        <mxCell id="55v0jhNbEc0lfUp3kyLJ-24" value="&quot;평균은 :&quot;" style="shape=document;whiteSpace=wrap;html=1;boundedLbl=1;" vertex="1" parent="WIyWlLk6GJQsqaUBKTNV-1">
          <mxGeometry x="540" y="1020" width="120" height="80" as="geometry" />
        </mxCell>
        <mxCell id="55v0jhNbEc0lfUp3kyLJ-26" value="" style="rounded=0;html=1;jettySize=auto;orthogonalLoop=1;fontSize=11;endArrow=block;endFill=0;endSize=8;strokeWidth=1;shadow=0;labelBackgroundColor=none;edgeStyle=orthogonalEdgeStyle;exitX=0.5;exitY=1;exitDx=0;exitDy=0;entryX=0.5;entryY=0;entryDx=0;entryDy=0;" edge="1" parent="WIyWlLk6GJQsqaUBKTNV-1" target="55v0jhNbEc0lfUp3kyLJ-21">
          <mxGeometry relative="1" as="geometry">
            <mxPoint x="599.5" y="650" as="sourcePoint" />
            <mxPoint x="600" y="680" as="targetPoint" />
            <Array as="points" />
          </mxGeometry>
        </mxCell>
        <mxCell id="55v0jhNbEc0lfUp3kyLJ-27" value="" style="rounded=0;html=1;jettySize=auto;orthogonalLoop=1;fontSize=11;endArrow=block;endFill=0;endSize=8;strokeWidth=1;shadow=0;labelBackgroundColor=none;edgeStyle=orthogonalEdgeStyle;exitX=0.2;exitY=0.967;exitDx=0;exitDy=0;entryX=0.5;entryY=0;entryDx=0;entryDy=0;exitPerimeter=0;" edge="1" parent="WIyWlLk6GJQsqaUBKTNV-1" source="wdg86uwv9AEd6ZHeT4TU-0">
          <mxGeometry relative="1" as="geometry">
            <mxPoint x="599.5" y="760" as="sourcePoint" />
            <mxPoint x="600" y="800" as="targetPoint" />
            <Array as="points">
              <mxPoint x="734" y="770" />
              <mxPoint x="601" y="770" />
            </Array>
          </mxGeometry>
        </mxCell>
        <mxCell id="55v0jhNbEc0lfUp3kyLJ-28" value="" style="rounded=0;html=1;jettySize=auto;orthogonalLoop=1;fontSize=11;endArrow=block;endFill=0;endSize=8;strokeWidth=1;shadow=0;labelBackgroundColor=none;edgeStyle=orthogonalEdgeStyle;exitX=0.433;exitY=1;exitDx=0;exitDy=0;entryX=0.5;entryY=0;entryDx=0;entryDy=0;exitPerimeter=0;" edge="1" parent="WIyWlLk6GJQsqaUBKTNV-1" source="wdg86uwv9AEd6ZHeT4TU-1">
          <mxGeometry relative="1" as="geometry">
            <mxPoint x="599.5" y="870" as="sourcePoint" />
            <mxPoint x="600" y="910" as="targetPoint" />
            <Array as="points" />
          </mxGeometry>
        </mxCell>
        <mxCell id="55v0jhNbEc0lfUp3kyLJ-30" value="" style="rounded=0;html=1;jettySize=auto;orthogonalLoop=1;fontSize=11;endArrow=block;endFill=0;endSize=8;strokeWidth=1;shadow=0;labelBackgroundColor=none;edgeStyle=orthogonalEdgeStyle;exitX=0.25;exitY=1;exitDx=0;exitDy=0;entryX=0.5;entryY=0;entryDx=0;entryDy=0;" edge="1" parent="WIyWlLk6GJQsqaUBKTNV-1" source="wdg86uwv9AEd6ZHeT4TU-2">
          <mxGeometry relative="1" as="geometry">
            <mxPoint x="599.5" y="980" as="sourcePoint" />
            <mxPoint x="600" y="1020" as="targetPoint" />
            <Array as="points" />
          </mxGeometry>
        </mxCell>
        <mxCell id="55v0jhNbEc0lfUp3kyLJ-31" value="" style="rounded=0;html=1;jettySize=auto;orthogonalLoop=1;fontSize=11;endArrow=block;endFill=0;endSize=8;strokeWidth=1;shadow=0;labelBackgroundColor=none;edgeStyle=orthogonalEdgeStyle;entryX=1;entryY=0.5;entryDx=0;entryDy=0;exitX=0.25;exitY=1;exitDx=0;exitDy=0;" edge="1" parent="WIyWlLk6GJQsqaUBKTNV-1" source="wdg86uwv9AEd6ZHeT4TU-3">
          <mxGeometry relative="1" as="geometry">
            <mxPoint x="595" y="1100" as="sourcePoint" />
            <mxPoint x="400" y="1140" as="targetPoint" />
            <Array as="points">
              <mxPoint x="740" y="1140" />
            </Array>
          </mxGeometry>
        </mxCell>
        <mxCell id="wdg86uwv9AEd6ZHeT4TU-0" value="my_max()" style="shape=process;whiteSpace=wrap;html=1;backgroundOutline=1;" vertex="1" parent="WIyWlLk6GJQsqaUBKTNV-1">
          <mxGeometry x="710" y="690" width="120" height="60" as="geometry" />
        </mxCell>
        <mxCell id="wdg86uwv9AEd6ZHeT4TU-1" value="my_min()" style="shape=process;whiteSpace=wrap;html=1;backgroundOutline=1;" vertex="1" parent="WIyWlLk6GJQsqaUBKTNV-1">
          <mxGeometry x="710" y="800" width="120" height="60" as="geometry" />
        </mxCell>
        <mxCell id="wdg86uwv9AEd6ZHeT4TU-2" value="my_sum()" style="shape=process;whiteSpace=wrap;html=1;backgroundOutline=1;" vertex="1" parent="WIyWlLk6GJQsqaUBKTNV-1">
          <mxGeometry x="710" y="910" width="120" height="60" as="geometry" />
        </mxCell>
        <mxCell id="wdg86uwv9AEd6ZHeT4TU-3" value="my_avg()" style="shape=process;whiteSpace=wrap;html=1;backgroundOutline=1;" vertex="1" parent="WIyWlLk6GJQsqaUBKTNV-1">
          <mxGeometry x="710" y="1020" width="120" height="60" as="geometry" />
        </mxCell>
        <mxCell id="wdg86uwv9AEd6ZHeT4TU-15" value="" style="edgeStyle=orthogonalEdgeStyle;rounded=0;orthogonalLoop=1;jettySize=auto;html=1;" edge="1" parent="WIyWlLk6GJQsqaUBKTNV-1" source="wdg86uwv9AEd6ZHeT4TU-12" target="wdg86uwv9AEd6ZHeT4TU-13">
          <mxGeometry relative="1" as="geometry" />
        </mxCell>
        <mxCell id="wdg86uwv9AEd6ZHeT4TU-12" value="my_input" style="rounded=1;whiteSpace=wrap;html=1;" vertex="1" parent="WIyWlLk6GJQsqaUBKTNV-1">
          <mxGeometry x="1030" y="40" width="120" height="60" as="geometry" />
        </mxCell>
        <mxCell id="wdg86uwv9AEd6ZHeT4TU-16" value="" style="edgeStyle=orthogonalEdgeStyle;rounded=0;orthogonalLoop=1;jettySize=auto;html=1;" edge="1" parent="WIyWlLk6GJQsqaUBKTNV-1" source="wdg86uwv9AEd6ZHeT4TU-13" target="wdg86uwv9AEd6ZHeT4TU-14">
          <mxGeometry relative="1" as="geometry" />
        </mxCell>
        <mxCell id="wdg86uwv9AEd6ZHeT4TU-13" value="num 선언" style="rounded=0;whiteSpace=wrap;html=1;" vertex="1" parent="WIyWlLk6GJQsqaUBKTNV-1">
          <mxGeometry x="1030" y="140" width="120" height="60" as="geometry" />
        </mxCell>
        <mxCell id="wdg86uwv9AEd6ZHeT4TU-18" value="" style="edgeStyle=orthogonalEdgeStyle;rounded=0;orthogonalLoop=1;jettySize=auto;html=1;" edge="1" parent="WIyWlLk6GJQsqaUBKTNV-1" source="wdg86uwv9AEd6ZHeT4TU-14" target="wdg86uwv9AEd6ZHeT4TU-17">
          <mxGeometry relative="1" as="geometry" />
        </mxCell>
        <mxCell id="wdg86uwv9AEd6ZHeT4TU-14" value="num 입력" style="shape=parallelogram;perimeter=parallelogramPerimeter;whiteSpace=wrap;html=1;fixedSize=1;" vertex="1" parent="WIyWlLk6GJQsqaUBKTNV-1">
          <mxGeometry x="1030" y="230" width="120" height="60" as="geometry" />
        </mxCell>
        <mxCell id="wdg86uwv9AEd6ZHeT4TU-17" value="num이 음수인가?" style="rhombus;whiteSpace=wrap;html=1;" vertex="1" parent="WIyWlLk6GJQsqaUBKTNV-1">
          <mxGeometry x="1035" y="320" width="110" height="110" as="geometry" />
        </mxCell>
        <mxCell id="wdg86uwv9AEd6ZHeT4TU-19" value="종료" style="rounded=1;whiteSpace=wrap;html=1;" vertex="1" parent="WIyWlLk6GJQsqaUBKTNV-1">
          <mxGeometry x="1030" y="1000" width="120" height="60" as="geometry" />
        </mxCell>
        <mxCell id="wdg86uwv9AEd6ZHeT4TU-20" value="" style="rounded=0;html=1;jettySize=auto;orthogonalLoop=1;fontSize=11;endArrow=block;endFill=0;endSize=8;strokeWidth=1;shadow=0;labelBackgroundColor=none;edgeStyle=orthogonalEdgeStyle;exitX=0;exitY=0.5;exitDx=0;exitDy=0;entryX=-0.033;entryY=0.617;entryDx=0;entryDy=0;entryPerimeter=0;" edge="1" parent="WIyWlLk6GJQsqaUBKTNV-1" source="wdg86uwv9AEd6ZHeT4TU-17" target="wdg86uwv9AEd6ZHeT4TU-19">
          <mxGeometry relative="1" as="geometry">
            <mxPoint x="870" y="430" as="sourcePoint" />
            <mxPoint x="1055" y="450" as="targetPoint" />
            <Array as="points">
              <mxPoint x="940" y="375" />
              <mxPoint x="940" y="1037" />
            </Array>
          </mxGeometry>
        </mxCell>
        <mxCell id="wdg86uwv9AEd6ZHeT4TU-21" value="Yes" style="text;html=1;align=center;verticalAlign=middle;whiteSpace=wrap;rounded=0;" vertex="1" parent="WIyWlLk6GJQsqaUBKTNV-1">
          <mxGeometry x="960" y="350" width="60" height="30" as="geometry" />
        </mxCell>
        <mxCell id="wdg86uwv9AEd6ZHeT4TU-22" value="No" style="text;html=1;align=center;verticalAlign=middle;whiteSpace=wrap;rounded=0;" vertex="1" parent="WIyWlLk6GJQsqaUBKTNV-1">
          <mxGeometry x="1170" y="350" width="60" height="30" as="geometry" />
        </mxCell>
        <mxCell id="wdg86uwv9AEd6ZHeT4TU-23" value="" style="rounded=0;html=1;jettySize=auto;orthogonalLoop=1;fontSize=11;endArrow=block;endFill=0;endSize=8;strokeWidth=1;shadow=0;labelBackgroundColor=none;edgeStyle=orthogonalEdgeStyle;exitX=1;exitY=0.5;exitDx=0;exitDy=0;" edge="1" parent="WIyWlLk6GJQsqaUBKTNV-1" source="wdg86uwv9AEd6ZHeT4TU-17">
          <mxGeometry relative="1" as="geometry">
            <mxPoint x="1150" y="375" as="sourcePoint" />
            <mxPoint x="1325" y="430" as="targetPoint" />
            <Array as="points">
              <mxPoint x="1325" y="375" />
              <mxPoint x="1325" y="395" />
            </Array>
          </mxGeometry>
        </mxCell>
        <mxCell id="wdg86uwv9AEd6ZHeT4TU-28" value="" style="edgeStyle=orthogonalEdgeStyle;rounded=0;orthogonalLoop=1;jettySize=auto;html=1;" edge="1" parent="WIyWlLk6GJQsqaUBKTNV-1" source="wdg86uwv9AEd6ZHeT4TU-24" target="wdg86uwv9AEd6ZHeT4TU-27">
          <mxGeometry relative="1" as="geometry" />
        </mxCell>
        <mxCell id="wdg86uwv9AEd6ZHeT4TU-24" value="num이 0인가?" style="rhombus;whiteSpace=wrap;html=1;" vertex="1" parent="WIyWlLk6GJQsqaUBKTNV-1">
          <mxGeometry x="1270" y="580" width="110" height="110" as="geometry" />
        </mxCell>
        <mxCell id="wdg86uwv9AEd6ZHeT4TU-25" value="" style="rounded=0;html=1;jettySize=auto;orthogonalLoop=1;fontSize=11;endArrow=block;endFill=0;endSize=8;strokeWidth=1;shadow=0;labelBackgroundColor=none;edgeStyle=orthogonalEdgeStyle;entryX=1;entryY=0.75;entryDx=0;entryDy=0;exitX=1;exitY=0.5;exitDx=0;exitDy=0;" edge="1" parent="WIyWlLk6GJQsqaUBKTNV-1" source="wdg86uwv9AEd6ZHeT4TU-24" target="wdg86uwv9AEd6ZHeT4TU-13">
          <mxGeometry relative="1" as="geometry">
            <mxPoint x="1362.5" y="510" as="sourcePoint" />
            <mxPoint x="1150" y="190" as="targetPoint" />
            <Array as="points">
              <mxPoint x="1380" y="640" />
              <mxPoint x="1555" y="640" />
              <mxPoint x="1555" y="180" />
              <mxPoint x="1150" y="180" />
              <mxPoint x="1150" y="185" />
            </Array>
          </mxGeometry>
        </mxCell>
        <mxCell id="wdg86uwv9AEd6ZHeT4TU-26" value="Yes" style="text;html=1;align=center;verticalAlign=middle;whiteSpace=wrap;rounded=0;" vertex="1" parent="WIyWlLk6GJQsqaUBKTNV-1">
          <mxGeometry x="1430" y="600" width="60" height="30" as="geometry" />
        </mxCell>
        <mxCell id="wdg86uwv9AEd6ZHeT4TU-31" value="" style="edgeStyle=orthogonalEdgeStyle;rounded=0;orthogonalLoop=1;jettySize=auto;html=1;" edge="1" parent="WIyWlLk6GJQsqaUBKTNV-1" source="wdg86uwv9AEd6ZHeT4TU-27" target="wdg86uwv9AEd6ZHeT4TU-30">
          <mxGeometry relative="1" as="geometry" />
        </mxCell>
        <mxCell id="wdg86uwv9AEd6ZHeT4TU-27" value="num이 양수인가?" style="rhombus;whiteSpace=wrap;html=1;" vertex="1" parent="WIyWlLk6GJQsqaUBKTNV-1">
          <mxGeometry x="1270" y="730" width="110" height="110" as="geometry" />
        </mxCell>
        <mxCell id="wdg86uwv9AEd6ZHeT4TU-29" value="No" style="text;html=1;align=center;verticalAlign=middle;whiteSpace=wrap;rounded=0;" vertex="1" parent="WIyWlLk6GJQsqaUBKTNV-1">
          <mxGeometry x="1260" y="690" width="60" height="30" as="geometry" />
        </mxCell>
        <mxCell id="wdg86uwv9AEd6ZHeT4TU-30" value="res 리스트에 num 추가" style="rounded=0;whiteSpace=wrap;html=1;" vertex="1" parent="WIyWlLk6GJQsqaUBKTNV-1">
          <mxGeometry x="1260" y="910" width="130" height="60" as="geometry" />
        </mxCell>
        <mxCell id="wdg86uwv9AEd6ZHeT4TU-32" value="Yes" style="text;html=1;align=center;verticalAlign=middle;whiteSpace=wrap;rounded=0;" vertex="1" parent="WIyWlLk6GJQsqaUBKTNV-1">
          <mxGeometry x="1330" y="830" width="60" height="30" as="geometry" />
        </mxCell>
        <mxCell id="wdg86uwv9AEd6ZHeT4TU-33" value="" style="rounded=0;html=1;jettySize=auto;orthogonalLoop=1;fontSize=11;endArrow=block;endFill=0;endSize=8;strokeWidth=1;shadow=0;labelBackgroundColor=none;edgeStyle=orthogonalEdgeStyle;entryX=1;entryY=0.25;entryDx=0;entryDy=0;" edge="1" parent="WIyWlLk6GJQsqaUBKTNV-1" source="wdg86uwv9AEd6ZHeT4TU-30" target="wdg86uwv9AEd6ZHeT4TU-13">
          <mxGeometry relative="1" as="geometry">
            <mxPoint x="1400" y="745" as="sourcePoint" />
            <mxPoint x="1170" y="425" as="targetPoint" />
            <Array as="points">
              <mxPoint x="1575" y="930" />
              <mxPoint x="1575" y="155" />
            </Array>
          </mxGeometry>
        </mxCell>
        <mxCell id="wdg86uwv9AEd6ZHeT4TU-35" value="" style="edgeStyle=orthogonalEdgeStyle;rounded=0;orthogonalLoop=1;jettySize=auto;html=1;" edge="1" parent="WIyWlLk6GJQsqaUBKTNV-1" source="wdg86uwv9AEd6ZHeT4TU-34" target="wdg86uwv9AEd6ZHeT4TU-24">
          <mxGeometry relative="1" as="geometry" />
        </mxCell>
        <mxCell id="wdg86uwv9AEd6ZHeT4TU-34" value="num이 숫자인가" style="rhombus;whiteSpace=wrap;html=1;" vertex="1" parent="WIyWlLk6GJQsqaUBKTNV-1">
          <mxGeometry x="1270" y="430" width="110" height="110" as="geometry" />
        </mxCell>
        <mxCell id="wdg86uwv9AEd6ZHeT4TU-36" value="Yes" style="text;html=1;align=center;verticalAlign=middle;whiteSpace=wrap;rounded=0;" vertex="1" parent="WIyWlLk6GJQsqaUBKTNV-1">
          <mxGeometry x="1320" y="540" width="60" height="30" as="geometry" />
        </mxCell>
        <mxCell id="wdg86uwv9AEd6ZHeT4TU-37" value="" style="rounded=0;html=1;jettySize=auto;orthogonalLoop=1;fontSize=11;endArrow=block;endFill=0;endSize=8;strokeWidth=1;shadow=0;labelBackgroundColor=none;edgeStyle=orthogonalEdgeStyle;entryX=1;entryY=1;entryDx=0;entryDy=0;" edge="1" parent="WIyWlLk6GJQsqaUBKTNV-1" source="wdg86uwv9AEd6ZHeT4TU-34" target="wdg86uwv9AEd6ZHeT4TU-13">
          <mxGeometry relative="1" as="geometry">
            <mxPoint x="1387.5" y="485" as="sourcePoint" />
            <mxPoint x="1157.5" y="40" as="targetPoint" />
            <Array as="points">
              <mxPoint x="1460" y="490" />
              <mxPoint x="1460" y="200" />
            </Array>
          </mxGeometry>
        </mxCell>
        <mxCell id="wdg86uwv9AEd6ZHeT4TU-38" value="No" style="text;html=1;align=center;verticalAlign=middle;whiteSpace=wrap;rounded=0;" vertex="1" parent="WIyWlLk6GJQsqaUBKTNV-1">
          <mxGeometry x="1390" y="455" width="60" height="30" as="geometry" />
        </mxCell>
      </root>
    </mxGraphModel>
  </diagram>
  <diagram id="mZUIql6oPXteLRLIynQ4" name="페이지-2">
    <mxGraphModel dx="1434" dy="746" grid="1" gridSize="10" guides="1" tooltips="1" connect="1" arrows="1" fold="1" page="1" pageScale="1" pageWidth="827" pageHeight="1169" math="0" shadow="0">
      <root>
        <mxCell id="0" />
        <mxCell id="1" parent="0" />
      </root>
    </mxGraphModel>
  </diagram>
</mxfile>
